<?xml version="1.0" standalone="no"?>
<!DOCTYPE svg PUBLIC "-//W3C//DTD SVG 20010904//EN"
 "http://www.w3.org/TR/2001/REC-SVG-20010904/DTD/svg10.dtd">
<svg version="1.0" xmlns="http://www.w3.org/2000/svg"
 width="572.000000pt" height="572.000000pt" viewBox="0 0 572.000000 572.000000"
 preserveAspectRatio="xMidYMid meet">
<metadata>
Created by potrace 1.11, written by Peter Selinger 2001-2013
</metadata>
<g transform="translate(0.000000,572.000000) scale(0.100000,-0.100000)"
fill="#000000" stroke="none">
<path d="M2455 4219 c-714 -50 -1381 -234 -1830 -506 -198 -120 -397 -298
-484 -433 -22 -34 -55 -71 -73 -83 -65 -44 -68 -59 -68 -380 0 -247 2 -294 16
-324 19 -38 77 -83 110 -83 13 0 32 -16 51 -42 45 -62 186 -199 270 -262 383
-288 977 -500 1658 -591 447 -59 1063 -59 1510 0 871 116 1597 433 1914 835
28 36 55 58 79 67 21 7 51 27 68 46 l31 33 6 185 c4 101 4 245 0 319 l-6 135
-45 45 c-24 25 -61 70 -82 100 -314 459 -1091 803 -2060 914 -305 35 -762 46
-1065 25z m612 -36 c-4 -3 -41 -5 -82 -4 -69 2 -75 1 -75 -17 0 -24 54 -72 81
-72 11 0 23 10 29 24 13 34 26 40 92 37 51 -2 58 0 58 17 0 15 5 18 25 14 14
-2 22 -8 20 -12 -3 -5 -1 -11 5 -15 16 -10 12 -25 -6 -25 -17 0 -16 -33 1 -72
6 -15 2 -18 -22 -18 -16 0 -33 4 -38 8 -6 5 -29 15 -52 22 -36 11 -50 11 -85
0 -54 -17 -68 -28 -68 -51 0 -10 -13 -34 -30 -52 -37 -42 -38 -69 -5 -95 28
-22 25 -47 -5 -55 -13 -3 -24 3 -35 19 -18 28 -19 46 -4 61 7 7 9 19 6 27 -8
20 -37 21 -37 1 0 -8 -4 -15 -10 -15 -5 0 -10 9 -10 19 0 24 -29 36 -37 15 -3
-9 0 -20 7 -24 15 -9 5 -30 -16 -30 -16 0 -19 -16 -4 -25 14 -9 -7 -35 -27
-35 -10 0 -13 -9 -11 -32 2 -27 7 -33 26 -32 12 0 22 -5 22 -12 0 -7 14 -29
31 -49 l31 -35 -42 0 c-56 0 -70 -17 -70 -85 0 -49 3 -58 21 -62 20 -6 20 -6
-5 -32 -13 -14 -26 -39 -28 -56 -2 -25 -7 -30 -28 -27 -14 1 -26 7 -28 12 -5
13 -32 13 -32 0 0 -5 -7 -10 -16 -10 -11 0 -14 -8 -12 -27 2 -17 9 -28 18 -28
21 0 21 -14 -2 -62 -11 -23 -17 -47 -13 -53 4 -7 -105 -9 -362 -8 l-368 3 -3
23 c-2 12 -10 22 -18 22 -8 0 -14 6 -14 13 0 7 -6 19 -12 25 -7 7 -13 20 -13
30 0 9 -10 21 -23 27 -12 5 -22 16 -22 23 0 18 52 67 89 83 17 8 31 19 31 25
0 17 60 73 96 90 19 9 34 23 34 30 0 16 1 16 83 16 41 1 57 5 57 14 0 8 5 14
10 14 6 0 10 7 10 15 0 18 4 19 30 3 33 -21 57 14 65 95 4 38 3 67 -2 67 -16
0 -2 58 18 76 10 9 19 23 19 31 0 7 8 13 19 13 29 0 43 25 40 69 -2 23 1 45 6
50 16 14 59 21 75 11 12 -8 12 -11 -1 -27 -9 -10 -19 -25 -23 -33 -3 -8 -15
-28 -25 -45 -27 -42 -26 -70 4 -89 36 -23 47 -20 90 24 21 22 46 40 55 40 8 0
24 6 35 14 11 7 30 16 43 20 18 6 22 4 22 -16 0 -43 14 -52 62 -42 37 8 43 13
46 36 3 25 0 27 -40 31 -36 3 -39 5 -20 11 12 5 22 14 22 22 0 7 14 23 30 36
17 12 30 26 30 31 0 5 11 18 25 29 14 11 25 26 25 34 0 11 23 14 122 14 67 0
118 -3 115 -7z m-757 -17 c0 -3 -4 -8 -10 -11 -5 -3 -10 -1 -10 4 0 6 5 11 10
11 6 0 10 -2 10 -4z m-77 -13 c-7 -2 -21 -2 -30 0 -10 3 -4 5 12 5 17 0 24 -2
18 -5z m488 -15 c-4 -13 -18 -24 -29 -26 -12 -2 -32 -17 -46 -33 -14 -16 -31
-29 -38 -29 -7 0 -19 -9 -25 -19 -8 -13 -19 -18 -33 -14 -25 7 -26 23 -1 23
11 0 26 7 35 15 8 8 19 15 25 15 5 0 16 9 24 20 7 10 27 26 43 35 l29 15 -52
0 c-32 0 -53 -4 -53 -11 0 -6 -7 -8 -16 -5 -20 8 -43 -20 -44 -51 0 -12 -5
-25 -10 -28 -6 -4 -8 -15 -5 -26 4 -13 2 -19 -8 -19 -8 0 -17 -7 -21 -15 -3
-8 -12 -15 -19 -15 -8 0 -20 -7 -27 -15 -15 -19 -23 -14 -14 9 3 9 12 16 20
16 8 0 14 7 14 15 0 8 6 15 13 15 13 0 32 38 42 88 4 18 13 32 21 32 8 0 14 4
14 9 0 12 31 18 107 20 61 1 62 0 54 -21z m861 11 c75 -10 88 -14 88 -30 0
-19 -24 -26 -34 -10 -4 5 -30 12 -59 16 -28 4 -56 11 -62 15 -5 5 -21 10 -35
13 -53 9 16 7 102 -4z m-1427 -8 c-3 -6 -27 -13 -53 -16 -26 -4 -56 -10 -67
-14 -11 -5 -32 -13 -47 -20 -16 -6 -28 -18 -28 -26 0 -12 -4 -13 -18 -6 -9 5
-38 7 -64 4 -26 -3 -68 -2 -94 2 -86 12 -63 18 306 78 47 8 71 7 65 -2z m1155
-6 c7 -9 19 -14 27 -11 7 3 13 -1 13 -9 0 -8 -7 -15 -16 -15 -11 0 -15 -6 -11
-20 5 -21 -7 -28 -18 -10 -3 6 -15 10 -26 10 -24 0 -24 9 -1 27 12 10 14 16 5
19 -7 3 -13 10 -13 15 0 15 26 10 40 -6z m253 -53 c12 -11 42 -17 95 -19 42
-1 85 -3 95 -3 9 -1 17 -6 17 -11 0 -13 131 -10 148 4 8 6 12 6 12 0 0 -6 34
-13 76 -15 42 -3 79 -10 83 -16 7 -12 108 -15 116 -3 5 8 57 -6 83 -22 6 -5
16 -6 21 -3 5 3 21 0 35 -8 l27 -14 -27 -6 c-15 -4 -30 -3 -33 3 -3 5 -20 13
-36 17 -17 4 -36 12 -44 18 -11 8 -15 8 -18 -1 -6 -16 -120 -18 -125 -3 -2 6
-37 14 -78 17 -41 3 -79 11 -83 17 -6 8 -10 7 -14 -1 -6 -16 -140 -18 -145 -2
-2 6 -44 12 -102 14 -78 2 -101 6 -108 19 -9 16 -58 23 -58 8 0 -5 9 -17 20
-27 20 -18 27 -45 12 -45 -4 0 -12 10 -17 22 -6 12 -21 25 -35 29 -14 4 -19 7
-12 8 19 2 14 31 -5 31 -13 0 -14 3 -6 8 19 12 86 2 106 -16z m332 18 l30 -8
-35 -1 c-19 0 -42 4 -50 9 -12 8 -11 10 5 9 11 -1 34 -5 50 -9z m80 -20 c3 -5
2 -10 -4 -10 -5 0 -13 5 -16 10 -3 6 -2 10 4 10 5 0 13 -4 16 -10z m-1668 -57
c-3 -10 -5 -4 -5 12 0 17 2 24 5 18 2 -7 2 -21 0 -30z m-522 -4 c12 -12 82
-12 90 1 10 16 45 12 45 -6 0 -11 -6 -13 -19 -9 -11 3 -22 1 -26 -5 -8 -14
-82 -13 -87 1 -6 17 -150 17 -156 1 -2 -7 -16 -12 -32 -12 -15 0 -33 -7 -40
-15 -7 -8 -22 -15 -34 -15 -16 0 -17 -3 -7 -9 7 -5 22 -6 32 -4 10 3 19 1 19
-5 0 -14 -35 -21 -51 -11 -8 5 -27 9 -44 10 -17 1 -22 3 -12 6 9 2 17 11 17
19 0 10 12 14 41 14 32 0 40 3 35 15 -4 11 2 15 27 15 18 0 37 4 43 9 21 21
137 21 159 0z m-270 1 c-3 -5 -13 -10 -21 -10 -8 0 -12 5 -9 10 3 6 13 10 21
10 8 0 12 -4 9 -10z m1595 -15 c0 -15 6 -25 14 -25 7 0 19 -7 26 -15 14 -17
80 -21 80 -5 0 6 6 10 13 10 7 0 18 9 25 20 10 17 23 20 83 20 50 0 70 -3 67
-12 -3 -8 -25 -11 -64 -9 -50 2 -63 -1 -78 -18 -11 -12 -25 -21 -33 -21 -7 0
-13 -4 -13 -10 0 -5 -11 -10 -25 -10 -17 0 -23 -4 -19 -15 5 -12 -36 -65 -51
-65 -15 0 -2 30 16 35 23 8 22 33 -3 49 -13 8 -23 8 -38 -1 -22 -15 -39 2 -21
20 18 18 12 41 -13 53 -39 18 -59 -5 -64 -78 -4 -50 -7 -58 -13 -39 -5 12 -18
25 -29 28 -11 3 -20 10 -20 15 0 6 8 8 19 5 14 -3 17 0 14 14 -3 11 0 19 6 19
6 0 11 5 11 12 0 25 34 48 72 48 34 0 38 -3 38 -25z m-1150 -15 c0 -5 9 -10
19 -10 11 0 23 5 26 10 7 12 85 14 85 2 0 -5 -13 -7 -28 -4 -18 2 -33 -2 -41
-12 -8 -9 -20 -16 -27 -16 -8 0 -14 -3 -14 -8 0 -4 -10 -12 -22 -17 -13 -6
-27 -20 -33 -32 -5 -13 -13 -23 -17 -23 -5 0 -8 -7 -8 -15 0 -8 -4 -15 -10
-15 -5 0 -10 7 -10 15 0 8 5 15 10 15 6 0 10 6 10 14 0 8 15 27 34 44 36 32
37 42 2 42 -17 0 -18 2 -6 10 19 13 30 13 30 0z m1555 0 c3 -5 -1 -10 -9 -10
-9 0 -16 -4 -16 -10 0 -5 -16 -10 -35 -10 -19 0 -35 5 -35 10 0 6 16 10 35 10
19 0 35 5 35 10 0 6 4 10 9 10 6 0 13 -4 16 -10z m-2205 -33 c0 -6 -13 -18
-30 -25 -16 -8 -30 -21 -30 -30 0 -18 -42 -42 -72 -42 -10 0 -18 5 -18 10 0
19 -38 10 -43 -10 -3 -13 -14 -20 -30 -20 -14 0 -28 -4 -31 -9 -3 -5 -32 -12
-63 -15 -79 -10 -123 -25 -123 -42 0 -12 11 -14 63 -8 34 4 67 10 72 14 6 5
40 11 78 15 37 4 70 11 72 16 3 4 33 11 66 15 32 4 62 11 65 15 3 5 15 9 27 9
12 0 35 7 50 15 16 8 49 17 74 19 42 4 43 3 29 -13 -9 -10 -16 -23 -16 -29 0
-7 -6 -12 -14 -12 -15 0 -26 -30 -26 -70 0 -18 -18 -44 -60 -85 -41 -40 -62
-70 -66 -92 -3 -18 -10 -36 -15 -39 -12 -7 -11 -71 1 -79 14 -9 13 -51 -2 -75
-10 -15 -10 -22 0 -32 6 -6 12 -22 12 -34 0 -30 27 -51 49 -37 15 9 17 6 17
-23 l0 -34 -343 0 c-297 0 -343 2 -343 15 0 14 -70 65 -90 65 -5 0 -10 -7 -10
-15 0 -8 5 -15 10 -15 6 0 10 -6 10 -14 0 -7 10 -17 23 -22 13 -5 -69 -10
-207 -11 -126 -2 -231 -1 -233 1 -3 3 8 22 23 43 150 202 353 359 659 508 138
67 322 145 344 145 5 0 8 -8 7 -17 -2 -29 29 -21 32 8 2 20 11 29 35 37 44 14
47 14 47 -1z m2988 -34 c-6 -7 -23 -13 -39 -13 -27 0 -42 -24 -20 -32 14 -5
25 -58 13 -58 -6 0 -13 14 -17 30 -4 17 -11 30 -16 30 -5 0 -9 5 -9 11 0 19
28 39 54 39 18 0 26 5 26 18 0 14 2 15 10 2 5 -9 5 -19 -2 -27z m-2227 -1 c-6
-2 -9 -8 -5 -13 6 -10 -45 -58 -62 -59 -17 0 -44 34 -36 47 4 6 21 15 37 19
17 4 39 13 50 21 15 10 21 10 24 1 2 -7 -1 -14 -8 -16z m2378 19 c7 -5 9 -11
4 -14 -6 -4 -19 0 -29 8 -15 11 -16 14 -4 15 8 0 21 -4 29 -9z m-3039 -5 c0
-11 -19 -15 -25 -6 -3 5 1 10 9 10 9 0 16 -2 16 -4z m3217 -40 c132 -51 193
-78 193 -85 0 -3 -11 -7 -25 -7 -14 -1 -25 2 -25 7 0 12 -47 12 -55 0 -6 -10
29 -34 55 -36 8 -1 32 -6 53 -10 41 -8 46 -1 20 28 -12 13 9 6 67 -23 257
-128 469 -290 594 -454 31 -40 56 -75 56 -79 0 -4 -132 -7 -294 -7 -247 0
-296 3 -306 15 -16 19 -40 19 -40 0 0 -13 -23 -15 -144 -15 l-145 0 -21 27
-21 27 20 8 c12 4 21 14 21 22 0 18 -45 47 -63 40 -10 -4 -16 6 -20 38 -4 35
-14 51 -51 85 -30 27 -42 44 -35 49 7 4 16 -1 21 -11 20 -34 50 -57 69 -52 14
4 19 0 19 -15 0 -13 5 -18 14 -15 17 7 26 -13 26 -52 0 -31 34 -69 45 -52 3 6
4 38 1 71 -4 47 -2 60 8 60 8 0 17 6 19 13 4 8 12 4 26 -13 18 -21 22 -23 31
-10 6 10 5 21 -5 35 -8 11 -27 44 -42 73 -14 28 -33 52 -42 52 -12 0 -12 3 -3
12 14 14 16 104 3 113 -10 6 -41 63 -41 76 0 4 10 9 23 11 31 4 18 23 -18 25
-16 1 -38 2 -47 2 -10 1 -18 8 -18 16 0 8 -6 15 -14 15 -19 0 -29 17 -22 35 7
20 12 20 113 -19z m-3260 18 c-3 -3 -12 -4 -19 -1 -8 3 -5 6 6 6 11 1 17 -2
13 -5z m223 -10 c0 -8 -7 -22 -15 -30 -8 -9 -15 -24 -15 -35 0 -10 -4 -19 -10
-19 -15 0 -12 37 5 54 8 8 15 22 15 30 0 9 5 16 10 16 6 0 10 -7 10 -16z m574
1 c-6 -15 17 -45 35 -45 6 0 11 -9 11 -20 0 -11 -5 -20 -11 -20 -6 0 -9 -6 -6
-14 7 -17 -13 -26 -52 -26 -15 0 -48 -11 -72 -25 -24 -14 -52 -28 -61 -31 -10
-4 -18 -15 -18 -25 0 -11 7 -19 18 -20 13 0 14 -2 2 -6 -8 -4 -21 -14 -28 -25
-7 -10 -24 -18 -38 -18 -13 0 -24 -4 -24 -9 0 -6 -12 -16 -27 -23 -15 -7 -29
-22 -31 -33 -4 -22 -30 -55 -44 -55 -4 0 -24 -18 -44 -40 -34 -38 -64 -52 -64
-30 0 6 -13 10 -29 10 -17 0 -33 -4 -36 -10 -3 -5 -21 -10 -40 -10 -48 0 -84
-16 -95 -42 -6 -13 -14 -30 -18 -38 -26 -45 -32 -63 -32 -90 0 -28 -2 -30 -40
-30 -41 0 -52 14 -28 38 8 8 8 15 0 25 -6 7 -14 32 -18 55 -4 23 -11 45 -15
48 -5 3 -9 18 -9 35 0 18 -5 29 -14 29 -17 0 -28 65 -18 101 10 38 103 139
127 139 21 0 49 42 61 93 6 27 18 35 29 18 3 -5 1 -12 -5 -16 -5 -3 -10 -17
-10 -31 0 -13 -4 -24 -10 -24 -5 0 -10 -4 -10 -10 0 -16 -33 -50 -50 -50 -25
0 -106 -91 -117 -132 -6 -21 -8 -38 -3 -38 4 0 11 -11 14 -25 4 -14 11 -25 16
-25 6 0 10 -13 10 -29 0 -17 5 -33 11 -37 6 -3 8 -17 5 -29 -4 -14 -1 -25 6
-27 6 -2 11 -24 12 -49 1 -36 5 -45 19 -45 12 0 17 8 17 28 0 15 5 30 10 33 6
3 10 17 10 30 0 12 7 25 15 29 8 3 15 12 15 20 0 8 14 26 31 40 23 19 42 26
75 26 24 0 44 5 44 10 0 6 16 10 35 10 19 0 35 -4 35 -10 0 -22 29 -8 61 28
19 21 42 41 52 45 9 3 17 15 17 26 0 10 15 31 33 45 17 15 37 31 44 36 7 6 18
10 25 10 17 1 56 30 40 30 -7 0 -12 9 -12 20 0 11 5 20 10 20 6 0 10 5 10 10
0 6 -5 10 -11 10 -20 0 -39 29 -39 59 0 25 -4 31 -22 32 -22 0 -22 1 -3 8 28
12 45 -5 45 -45 0 -44 25 -45 65 -4 16 17 32 30 37 30 11 0 43 33 51 53 3 9
13 17 22 17 8 0 15 7 15 15 0 8 4 15 10 15 5 0 7 -7 4 -15z m2344 -97 c26 -13
51 -29 55 -35 4 -7 14 -13 21 -13 8 0 16 -8 20 -17 3 -10 8 -22 11 -28 3 -5 0
-17 -5 -25 -8 -12 -14 -10 -40 15 -16 16 -30 35 -30 42 0 7 -5 13 -12 13 -6 0
-42 18 -79 41 -38 22 -73 38 -79 34 -5 -3 -13 1 -16 10 -5 12 -14 14 -35 10
-22 -5 -29 -3 -29 9 0 12 11 16 50 16 38 0 50 4 50 15 0 9 15 -1 36 -25 20
-22 57 -50 82 -62z m-2742 48 c8 -8 14 -22 14 -31 0 -19 -23 -45 -39 -45 -6 0
-11 5 -11 10 0 6 7 10 15 10 9 0 15 9 15 25 0 16 -6 25 -15 25 -8 0 -15 5 -15
10 0 15 19 12 36 -4z m-49 -43 c-3 -10 -5 -4 -5 12 0 17 2 24 5 18 2 -7 2 -21
0 -30z m1406 30 c4 -3 -7 -19 -23 -35 -22 -21 -40 -28 -67 -28 -21 0 -53 -4
-70 -9 -20 -6 -35 -6 -38 0 -9 13 13 19 92 27 57 6 70 10 78 30 10 23 17 27
28 15z m1171 -32 c4 -5 24 -12 46 -16 22 -4 40 -11 40 -16 0 -5 6 -9 14 -9 15
0 86 -74 86 -90 0 -17 -35 10 -53 41 -9 16 -23 29 -32 29 -8 0 -15 4 -15 9 0
5 -20 12 -45 15 -25 4 -45 11 -45 17 0 5 -7 9 -16 9 -8 0 -12 5 -9 10 8 12 22
13 29 1z m-1374 -59 c0 -4 -9 -13 -20 -20 -27 -16 -15 -42 20 -42 16 0 31 4
34 9 4 5 24 12 45 16 41 7 80 -12 124 -59 17 -19 18 -19 37 2 11 12 20 25 20
30 0 25 49 50 110 57 84 9 70 -10 -15 -22 -57 -8 -61 -10 -80 -49 -18 -38 -65
-75 -65 -52 0 12 -26 38 -38 38 -5 0 -17 9 -27 20 -18 20 -75 28 -75 10 0 -5
-6 -7 -13 -4 -8 3 -19 -1 -25 -9 -7 -8 -23 -12 -37 -9 -16 3 -25 0 -25 -9 0
-7 -7 -21 -17 -31 -9 -10 -21 -28 -27 -40 -15 -29 -47 -47 -53 -30 -3 6 -11
12 -19 12 -16 0 -19 16 -4 25 6 3 10 15 10 26 0 12 7 19 20 19 11 0 20 -4 20
-10 0 -18 25 -10 42 15 13 17 15 30 9 47 -7 18 -4 28 12 46 21 22 37 29 37 14z
m593 -16 c10 -8 17 -26 17 -45 0 -17 8 -39 20 -51 11 -11 15 -22 9 -25 -17
-11 -48 38 -49 78 0 34 -2 37 -28 37 -18 0 -38 -11 -57 -30 l-29 -30 40 -43
c34 -36 40 -47 35 -72 -4 -20 -9 -26 -14 -17 -5 7 -6 20 -3 30 4 12 -2 26 -17
40 l-22 21 -14 -29 c-9 -22 -20 -30 -39 -30 -24 -1 -25 -2 -10 -13 23 -18 32
-61 20 -97 -7 -18 -7 -30 -1 -30 5 0 9 -8 9 -18 0 -11 9 -27 20 -37 11 -10 20
-24 20 -32 0 -7 4 -13 10 -13 5 0 13 -12 16 -27 13 -55 29 -63 126 -63 72 0
88 3 88 15 0 11 -12 15 -44 15 -38 0 -48 5 -70 33 -14 17 -34 41 -45 53 -30
33 -37 82 -14 99 28 22 48 18 81 -17 22 -22 40 -31 61 -30 16 0 35 -6 42 -14
6 -8 20 -14 29 -14 10 0 21 -6 24 -12 5 -10 7 -10 12 0 7 15 71 16 76 1 2 -6
18 -12 36 -13 28 -2 61 -27 62 -48 0 -15 -15 -8 -28 13 -10 16 -20 19 -38 15
-17 -5 -26 -2 -30 9 -7 18 -70 21 -78 3 -5 -10 -7 -10 -12 0 -3 6 -14 12 -24
12 -9 0 -23 6 -29 14 -7 8 -26 14 -43 14 -23 -1 -39 7 -60 30 -17 20 -37 32
-53 32 -24 0 -26 -2 -19 -37 4 -21 16 -44 26 -53 10 -8 24 -26 31 -40 10 -21
21 -26 62 -28 57 -4 75 -15 68 -42 -5 -18 -14 -20 -107 -20 -94 0 -104 2 -124
23 -12 13 -19 26 -16 30 6 6 -24 48 -61 88 -8 9 -15 25 -15 37 0 12 -4 22 -9
22 -6 0 -6 13 0 33 5 17 7 44 3 60 -5 26 -8 27 -65 27 -47 0 -59 3 -59 16 0 9
9 18 20 21 11 3 20 9 20 14 0 5 7 9 15 9 8 0 15 -4 15 -10 0 -5 -7 -10 -15
-10 -8 0 -15 -4 -15 -10 0 -5 7 -10 15 -10 8 0 15 5 15 10 0 6 20 10 45 10 43
0 45 1 45 30 0 24 -7 35 -30 48 -29 16 -43 39 -17 29 6 -3 19 -8 27 -11 10 -4
28 6 50 29 36 37 63 43 93 21z m-143 -15 c0 -6 -4 -13 -10 -16 -5 -3 -10 1
-10 9 0 9 5 16 10 16 6 0 10 -4 10 -9z m1016 -16 c9 -8 13 -23 11 -33 -4 -14
-6 -14 -12 6 -8 25 -35 30 -35 7 0 -8 5 -15 10 -15 6 0 20 -9 32 -20 30 -28
38 -25 32 13 l-6 32 16 -29 c21 -38 20 -56 -4 -56 -11 0 -20 5 -20 10 0 19
-37 10 -60 -15 -25 -27 -22 -37 21 -59 12 -6 30 -24 38 -39 9 -15 27 -33 41
-40 29 -14 40 -47 16 -47 -9 0 -16 -8 -16 -20 0 -11 7 -20 15 -20 8 0 15 -4
15 -10 0 -15 -19 -12 -36 4 -19 19 -18 36 4 52 16 13 16 14 -4 20 -11 3 -27
15 -35 27 -8 12 -34 40 -59 64 l-45 42 28 29 c26 27 29 62 6 62 -13 0 -11 19
4 35 16 18 25 18 43 0z m199 -101 c14 -18 25 -35 25 -38 0 -9 -40 -47 -41 -38
-1 4 -2 14 -3 22 0 8 -9 15 -19 15 -11 0 -28 11 -39 25 -17 21 -18 25 -5 28
20 4 31 32 17 46 -5 5 -10 15 -10 21 0 5 12 -3 25 -20 13 -16 36 -44 50 -61z
m-1272 42 c20 -4 37 -11 37 -16 0 -13 -17 -13 -25 0 -8 13 -72 13 -81 -1 -13
-21 -27 8 -14 31 10 19 13 20 28 7 9 -8 34 -17 55 -21z m-363 -49 c0 -13 5
-28 12 -35 9 -9 2 -12 -31 -12 l-44 0 27 21 c21 17 24 24 15 35 -9 11 -8 14 5
14 10 0 16 -8 16 -23z m69 -1 c9 -10 8 -16 -4 -26 -13 -11 -15 -8 -15 14 0 30
3 32 19 12z m571 -16 c0 -22 22 -39 28 -22 5 16 20 15 38 -2 16 -17 19 -36 4
-36 -5 0 -10 7 -10 15 0 8 -7 15 -15 15 -8 0 -15 -7 -15 -15 0 -8 -9 -15 -20
-15 -13 0 -20 7 -20 19 0 11 -4 22 -9 25 -5 3 -7 15 -4 26 6 24 23 17 23 -10z
m-70 -10 c0 -5 -2 -10 -4 -10 -3 0 -8 5 -11 10 -3 6 -1 10 4 10 6 0 11 -4 11
-10z m-381 -54 c16 -15 18 -22 10 -33 -6 -7 -18 -13 -25 -13 -8 0 -14 -5 -14
-10 0 -6 -20 0 -44 12 -38 20 -41 24 -22 28 11 3 25 15 31 25 23 46 28 50 35
29 4 -10 17 -28 29 -38z m436 -7 c5 -5 -3 -9 -20 -9 -40 0 -75 10 -75 21 0 11
81 0 95 -12z m-593 -21 c-3 -20 1 -28 12 -28 9 0 16 -4 16 -10 0 -5 7 -10 16
-10 9 0 37 -10 61 -22 45 -22 45 -22 62 -3 11 14 26 19 49 17 17 -2 32 -7 32
-13 0 -5 11 -9 24 -9 25 0 70 -56 82 -103 3 -14 12 -28 20 -31 8 -3 14 -15 14
-26 0 -20 -5 -20 -361 -20 l-362 0 6 37 c4 20 10 39 14 42 4 3 14 18 22 34 8
15 25 30 38 33 18 5 23 13 23 37 0 42 35 77 76 77 17 0 37 7 44 15 10 12 28
15 64 13 49 -3 51 -4 48 -30z m320 2 c10 0 18 -7 18 -15 0 -22 -85 -24 -125
-2 -18 10 -15 12 25 22 25 7 49 8 55 4 5 -5 17 -9 27 -9z m345 14 c-3 -3 -12
-4 -19 -1 -8 3 -5 6 6 6 11 1 17 -2 13 -5z m-1940 -144 c-7 -53 -45 -85 -97
-81 -30 2 -38 -2 -50 -24 -10 -19 -20 -25 -39 -23 -29 3 -31 16 -12 63 31 79
55 98 114 88 20 -3 37 -1 41 6 4 6 17 11 28 11 18 0 20 -4 15 -40z m2803 12
c0 -31 -32 -72 -55 -72 -8 0 -15 -4 -15 -9 0 -6 -15 -11 -32 -13 -23 -2 -36
-10 -43 -25 -9 -20 -17 -23 -74 -23 -55 0 -67 3 -87 26 -13 14 -24 32 -24 40
0 12 -7 14 -32 9 -38 -8 -46 -14 -62 -47 -10 -20 -20 -23 -80 -26 -87 -4 -94
-1 -88 37 5 35 22 32 22 -5 0 -22 4 -24 49 -24 56 0 81 7 81 24 1 23 37 53 70
59 32 5 37 2 65 -36 28 -38 35 -42 78 -45 42 -3 50 0 73 27 18 22 35 31 55 31
16 0 29 3 29 8 0 4 10 12 23 17 17 8 22 18 21 43 -1 21 3 32 12 32 9 0 14 -11
14 -28z m-705 -72 c8 -7 21 -25 29 -41 l14 -29 -64 0 c-63 0 -64 1 -64 27 0
14 -6 34 -14 42 -13 14 -10 16 35 15 27 -1 56 -7 64 -14z m774 -62 c1 -5 -10
-8 -24 -8 -17 0 -23 4 -19 14 3 8 1 17 -5 21 -6 3 -11 11 -11 16 0 12 59 -32
59 -43z m-65 7 c4 -11 -1 -15 -19 -15 -29 0 -42 17 -18 23 30 8 31 8 37 -8z
m-2809 -5 c-3 -5 -19 -10 -36 -10 -16 0 -29 5 -29 10 0 6 16 10 36 10 21 0 33
-4 29 -10z m2460 0 c4 -6 -5 -10 -19 -10 -14 0 -26 5 -26 10 0 6 9 10 19 10
11 0 23 -4 26 -10z m-2772 -66 c17 -15 41 -24 61 -24 22 0 40 -8 55 -24 13
-14 33 -26 45 -28 12 -2 22 -12 24 -23 6 -34 74 -97 100 -92 18 4 22 0 22 -23
0 -15 -9 -39 -20 -53 -11 -14 -20 -31 -20 -39 0 -25 -23 -38 -66 -38 -36 0
-43 3 -48 25 -4 14 -18 31 -31 37 -28 13 -45 4 -27 -14 17 -17 15 -48 -4 -48
-12 0 -14 -9 -12 -37 3 -38 3 -38 51 -41 39 -3 48 -6 45 -20 -7 -37 -90 -54
-143 -30 -36 16 -55 57 -55 118 0 44 5 56 29 81 25 24 38 29 80 29 41 0 53 -4
69 -25 15 -19 29 -25 60 -25 44 0 46 1 56 44 6 23 4 27 -8 23 -9 -4 -19 0 -23
7 -20 34 -82 58 -151 58 -136 0 -212 -72 -212 -200 0 -85 30 -138 101 -175 47
-25 63 -28 124 -25 86 4 167 40 175 77 5 22 9 19 35 -33 28 -54 87 -126 104
-126 14 0 43 -39 37 -49 -4 -5 -2 -12 4 -16 35 -22 -23 -25 -444 -25 -445 0
-454 0 -459 20 -3 14 -14 20 -31 20 -31 0 -34 15 -5 23 13 3 18 10 14 17 -4 7
-16 10 -26 7 -11 -3 -19 -1 -19 4 0 6 -8 9 -17 7 -15 -2 -17 3 -15 30 3 29 1
32 -22 32 -16 0 -26 -6 -26 -15 0 -19 -9 -19 -31 0 -28 26 -76 7 -70 -28 1 -4
-8 -2 -19 5 -17 11 -22 10 -29 -1 -6 -9 -11 -10 -15 -2 -12 18 -26 12 -26 -10
0 -16 5 -20 20 -16 10 3 36 -1 56 -8 21 -7 55 -10 76 -7 38 5 48 -4 26 -26 -8
-8 -5 -14 16 -23 32 -15 44 -6 25 18 -10 14 -10 16 0 6 7 -6 20 -9 29 -5 12 4
14 1 9 -12 -4 -10 -7 -22 -7 -27 0 -13 -127 -11 -136 2 -4 8 -9 8 -17 0 -16
-16 -37 -13 -31 4 4 10 0 15 -11 15 -11 0 -15 -5 -11 -15 3 -9 0 -15 -9 -15
-10 0 -15 10 -15 30 0 20 -5 30 -15 30 -7 0 -18 8 -24 18 -7 12 -13 14 -20 6
-14 -13 9 -66 27 -59 6 2 12 -2 12 -10 0 -12 -20 -15 -110 -15 l-110 0 0 39
c0 37 -23 72 -38 57 -10 -11 -11 -65 -1 -72 29 -17 0 -24 -88 -22 l-98 3 -47
95 c-53 105 -93 264 -85 334 14 134 73 301 111 316 11 5 291 9 621 9 l599 -1
29 -24z m183 -4 c-1 -20 4 -25 24 -25 21 0 26 -6 28 -33 4 -37 -9 -42 -23 -10
-6 13 -19 24 -30 26 -11 2 -29 13 -41 23 -11 10 -33 20 -50 21 -16 1 -37 7
-48 14 -15 10 -4 12 62 11 79 -2 80 -2 78 -27z m64 20 c0 -5 7 -10 15 -10 8 0
15 5 15 10 0 6 14 10 30 10 17 0 30 -4 30 -8 0 -5 45 -9 99 -8 105 0 131 -9
131 -46 0 -32 -20 -61 -34 -49 -7 6 -37 13 -67 17 -44 5 -57 3 -68 -10 -7 -9
-19 -16 -27 -16 -7 0 -18 -8 -23 -19 -7 -13 -18 -17 -38 -14 -54 9 -57 12 -39
31 9 10 16 24 16 30 0 7 7 12 15 12 8 0 15 5 15 11 0 6 -8 8 -17 6 -12 -4 -28
7 -46 29 -16 19 -24 34 -18 34 6 0 11 -4 11 -10z m850 -25 c0 -31 3 -35 25
-35 21 0 25 5 25 29 0 20 -6 31 -17 34 -10 3 8 5 40 6 43 1 57 -2 57 -13 0 -8
-4 -18 -10 -21 -5 -3 -10 -25 -10 -49 0 -35 5 -46 30 -64 17 -13 30 -30 30
-39 0 -10 12 -27 26 -38 l27 -21 -23 -80 c-13 -43 -26 -82 -30 -87 -3 -4 -14
27 -23 70 -34 156 -32 153 -81 153 -23 0 -45 -2 -48 -5 -5 -5 74 -324 93 -372
7 -18 16 -23 46 -23 21 0 43 4 49 8 7 4 22 41 33 82 12 41 29 97 38 125 l16
49 36 -119 c20 -66 40 -126 44 -132 10 -16 83 -17 93 -2 4 6 16 47 28 91 19
69 24 78 36 64 7 -9 13 -38 12 -64 -2 -159 0 -214 8 -241 l9 -31 -381 0 c-337
0 -379 2 -368 15 7 9 12 43 12 83 l-1 68 49 17 c81 29 130 103 130 198 0 50
-45 134 -85 159 -72 45 -185 43 -256 -5 -30 -19 -38 -21 -43 -10 -3 8 -23 18
-46 21 -22 4 -40 11 -40 17 0 6 -8 19 -17 29 -18 20 -25 58 -11 58 4 0 5 25 2
55 l-7 55 252 0 251 0 0 -35z m911 25 c10 -6 19 -21 19 -33 0 -13 9 -26 22
-32 12 -6 25 -18 30 -27 4 -10 12 -26 17 -35 9 -21 58 -30 74 -14 18 18 29 13
25 -11 -3 -20 -10 -23 -60 -26 l-58 -3 0 -89 c0 -48 -3 -90 -7 -92 -5 -1 -16
-17 -26 -35 -13 -24 -16 -43 -11 -75 4 -24 4 -41 2 -38 -3 3 -37 77 -76 165
l-71 160 -49 3 -50 3 -53 -126 c-29 -69 -57 -125 -62 -125 -4 0 -10 8 -14 18
-3 9 -13 25 -21 35 -14 15 -13 25 6 96 12 43 22 83 22 90 0 7 -20 11 -50 11
-45 0 -50 -2 -50 -22 -1 -21 -2 -21 -11 -5 -12 20 -59 23 -78 5 -10 -11 -15
-10 -25 5 -15 19 -110 25 -121 7 -9 -15 -35 7 -35 30 0 10 -6 23 -13 29 -24
19 -40 102 -28 139 3 8 735 0 752 -8z m232 3 c-13 -2 -23 -11 -23 -19 0 -8 -7
-14 -16 -14 -8 0 -31 -12 -50 -26 -35 -27 -38 -26 -34 14 1 13 -4 30 -10 38
-11 12 -1 14 71 13 46 -1 74 -4 62 -6z m273 -10 c4 -10 6 -23 5 -29 0 -6 6
-17 14 -24 18 -15 20 -41 3 -37 -18 3 -22 -42 -4 -49 22 -9 7 -34 -20 -34
l-24 0 2 -197 3 -198 45 0 45 0 3 198 c2 157 0 197 -11 197 -7 0 -14 11 -15
25 -1 14 3 25 8 25 6 0 10 -8 10 -17 0 -23 29 -53 46 -46 8 3 14 -1 14 -10 0
-18 24 -29 45 -21 17 7 21 54 5 54 -5 0 -10 6 -10 14 0 7 -7 19 -15 26 -12 10
-13 16 -3 27 9 11 9 19 0 33 -8 13 -8 21 -1 26 6 3 14 17 19 30 9 22 15 24 69
24 60 0 90 -17 75 -42 -12 -19 -15 -106 -4 -113 18 -11 10 -35 -12 -35 -39 0
-109 -41 -134 -80 -49 -73 -42 -185 14 -252 77 -91 248 -90 325 1 21 26 30 30
45 22 10 -5 28 -8 39 -5 12 3 24 1 27 -5 4 -6 24 -11 45 -11 25 0 44 -7 56
-20 10 -11 24 -20 31 -20 7 0 14 -6 17 -12 3 -10 8 -9 18 3 26 30 86 69 107
69 11 0 24 5 27 10 3 6 17 7 31 4 20 -5 24 -2 24 14 0 12 4 23 9 27 15 8 25
-15 12 -28 -13 -13 -15 -47 -2 -47 6 0 13 5 17 12 5 8 11 6 19 -6 10 -13 10
-26 -4 -64 -19 -53 -51 -71 -51 -28 0 14 5 28 10 31 6 3 10 12 10 19 0 9 -19
13 -64 14 -60 1 -64 0 -70 -24 -5 -20 -11 -23 -31 -18 -29 7 -96 -41 -117 -83
-11 -21 -21 -27 -58 -30 -35 -3 -51 -10 -71 -33 l-25 -30 -447 0 c-246 0 -447
4 -447 9 0 4 12 30 26 57 15 29 24 59 22 75 -4 26 -3 27 65 33 38 3 82 13 98
21 31 17 59 61 59 95 0 31 -27 78 -50 85 -20 6 -20 6 1 28 27 29 34 62 19 97
-17 41 -53 61 -121 67 -69 7 -75 21 -29 61 17 15 30 30 30 35 0 11 -81 -1 -94
-14 -13 -12 -46 -11 -46 1 0 6 6 10 14 10 7 0 19 7 26 15 7 8 21 15 31 15 11
0 19 5 19 10 0 6 11 15 25 20 14 5 28 17 31 25 5 12 26 15 109 15 88 0 104 -2
111 -17z m124 -8 c-19 -20 -22 -32 -18 -70 3 -25 2 -48 -3 -51 -5 -3 -9 1 -9
9 0 8 -7 20 -15 27 -8 7 -15 20 -15 29 0 9 -7 29 -15 45 -8 15 -15 30 -15 32
0 2 26 4 57 4 l56 0 -23 -25z m372 -12 c43 -46 56 -80 33 -89 -9 -4 -25 2 -39
15 -12 11 -28 21 -34 21 -7 0 -12 5 -12 10 0 6 -8 10 -18 10 -16 0 -26 13 -50
63 -2 4 16 7 40 7 38 0 49 -5 80 -37z m185 7 c2 -14 5 -42 9 -62 3 -21 3 -46
-1 -55 -6 -16 -8 -16 -16 5 -4 12 -16 22 -25 22 -18 0 -53 -38 -54 -57 0 -7 7
-13 15 -13 8 0 15 -7 15 -15 0 -20 17 -19 29 3 7 11 10 12 11 4 0 -8 -16 -30
-35 -49 -34 -34 -55 -37 -55 -7 0 8 -7 14 -15 14 -8 0 -15 -6 -15 -14 0 -15
-24 -28 -34 -19 -3 4 -6 14 -6 23 0 9 -9 25 -21 36 -17 15 -49 74 -49 90 0 12
22 1 27 -13 11 -31 35 -53 60 -53 14 0 23 6 23 15 0 8 7 15 16 15 25 0 14 93
-15 124 -21 23 -22 25 -4 29 10 3 45 4 78 4 56 -2 60 -4 62 -27z m368 8 c2
-13 6 -34 7 -47 2 -14 9 -26 17 -29 11 -4 13 6 9 47 l-5 51 272 0 c150 0 287
-3 305 -6 27 -6 37 -16 61 -68 16 -34 32 -78 35 -99 4 -20 11 -40 15 -43 11
-7 12 -267 1 -280 -5 -5 -14 -29 -21 -54 -7 -25 -32 -82 -54 -127 l-41 -83
-112 0 c-61 0 -126 3 -143 6 -34 7 -43 24 -12 24 16 0 20 10 25 53 3 28 6 64
7 78 0 20 5 25 22 25 13 -1 23 6 25 18 3 16 0 18 -24 12 -24 -6 -26 -5 -14 9
18 21 5 31 -24 17 -15 -6 -24 -19 -25 -34 0 -13 -4 -55 -8 -95 -8 -69 -9 -71
-27 -57 -11 8 -16 14 -12 14 5 0 3 7 -4 15 -22 26 -30 16 -30 -35 l0 -50 -96
0 c-61 0 -93 4 -89 10 3 5 -1 20 -9 32 -9 13 -16 43 -16 70 0 26 -4 49 -9 53
-20 12 5 85 29 85 4 0 10 -9 13 -20 3 -11 14 -20 24 -20 10 0 29 -7 41 -16 32
-22 46 -13 48 31 1 29 -3 39 -18 43 -24 6 -23 28 1 35 14 3 23 -4 35 -29 8
-19 22 -34 29 -34 7 0 22 -7 33 -15 16 -13 16 -14 2 -9 -14 5 -18 1 -18 -15 0
-26 17 -27 50 -2 21 17 23 22 12 45 -9 21 -9 24 3 19 8 -3 15 0 15 6 0 6 -8
11 -18 11 -26 0 -89 33 -74 38 7 2 19 -1 26 -7 14 -12 26 -5 26 16 0 8 -12 13
-35 13 -26 0 -33 3 -29 15 4 8 1 16 -5 16 -6 1 -15 2 -21 3 -5 0 -15 7 -22 14
-6 6 -27 12 -45 12 -18 0 -43 6 -54 13 -17 10 -23 9 -37 -9 -15 -17 -22 -19
-47 -11 -17 5 -42 21 -57 35 -22 20 -30 23 -42 13 -9 -8 -16 -8 -20 -2 -4 6
-13 8 -20 5 -8 -3 -16 4 -19 17 -4 16 -11 20 -26 16 -17 -4 -18 -2 -8 14 9 15
9 23 -1 39 -6 11 -12 31 -12 46 0 39 -29 92 -66 121 -19 14 -34 34 -34 44 0
18 10 19 155 19 152 0 155 0 160 -22z m-4890 -35 c-5 -10 -14 -38 -21 -63 -10
-37 -13 -40 -13 -17 -1 16 6 44 15 63 16 34 32 49 19 17z m5614 -47 c-1 -17
-2 -16 -9 7 -5 16 -12 34 -17 41 -4 6 0 3 10 -7 9 -11 17 -29 16 -41z m-1412
42 c4 -7 13 -39 19 -70 10 -53 9 -58 -8 -58 -10 0 -18 7 -18 15 0 7 -7 18 -16
23 -11 6 -14 14 -8 23 11 19 13 49 2 55 -10 6 -1 24 12 24 5 0 12 -6 17 -12z
m-2477 -109 c0 -12 -7 -19 -19 -19 -17 0 -18 3 -8 24 13 27 27 25 27 -5z m101
11 c20 0 42 -7 49 -15 7 -8 19 -15 27 -15 7 0 17 -8 20 -17 10 -26 34 -42 64
-43 32 0 45 -34 29 -75 -25 -65 0 -164 51 -212 30 -27 90 -53 124 -53 24 0 25
-3 24 -52 -1 -64 -11 -103 -26 -103 -6 0 -15 -3 -19 -7 -4 -5 -83 -8 -176 -8
-143 0 -168 2 -168 15 0 8 -5 25 -12 38 -6 12 -14 29 -18 37 -4 8 -19 21 -33
28 -15 7 -27 17 -27 23 0 5 -7 9 -15 9 -8 0 -15 5 -15 10 0 6 52 10 135 10
l135 0 0 46 0 45 -105 -3 -105 -3 0 185 c0 143 3 181 12 172 7 -7 29 -12 49
-12z m2757 -37 c-14 -17 -25 -16 -32 3 -9 24 3 35 24 22 14 -9 16 -16 8 -25z
m1029 5 c-3 -8 -6 -5 -6 6 -1 11 2 17 5 13 3 -3 4 -12 1 -19z m-5640 -50 c-3
-8 -6 -5 -6 6 -1 11 2 17 5 13 3 -3 4 -12 1 -19z m4673 -23 c-6 -7 -9 -19 -8
-26 4 -18 -60 -18 -67 0 -3 8 7 27 21 43 26 26 29 27 46 11 13 -11 15 -20 8
-28z m-1782 23 c16 -16 15 -47 -5 -125 l-16 -66 -23 79 c-29 98 -29 97 -1 110
30 16 31 16 45 2z m1656 -19 c-3 -6 0 -22 7 -36 10 -19 11 -28 1 -41 -7 -9
-15 -25 -18 -34 -8 -24 -46 -17 -59 10 -5 12 -14 22 -18 22 -8 0 83 89 91 90
2 0 0 -5 -4 -11z m-2844 -141 c0 -142 2 -139 -42 -57 -14 25 -15 35 -6 46 8
10 9 20 1 31 -7 13 -5 25 9 47 10 17 21 38 24 48 4 9 8 17 10 17 2 0 4 -60 4
-132z m615 108 c27 -27 45 -98 27 -104 -7 -2 -10 -13 -6 -27 3 -12 1 -26 -5
-29 -6 -4 -11 -3 -11 3 0 24 -83 81 -119 81 -9 1 -26 9 -39 20 -19 16 -21 23
-12 39 15 30 40 40 93 41 37 0 53 -5 72 -24z m1339 18 c9 -3 16 -16 16 -29 0
-29 -16 -35 -90 -35 -62 0 -62 0 -44 58 4 13 89 17 118 6z m570 -6 c-4 -6 0
-16 9 -23 21 -15 67 -103 67 -127 0 -11 -13 -33 -29 -49 -58 -58 -162 -24
-177 57 -16 87 25 154 96 154 29 0 39 -4 34 -12z m206 -17 c0 -5 -7 -11 -15
-15 -15 -5 -20 5 -8 17 9 10 23 9 23 -2z m-1216 -64 c9 -23 16 -46 16 -50 0
-4 -18 -7 -40 -7 -22 0 -40 1 -40 3 0 15 34 97 40 97 4 0 15 -19 24 -43z
m1481 5 c-8 -8 -25 10 -19 20 4 6 9 5 15 -3 4 -7 6 -15 4 -17z m-265 -2 c0 -5
-4 -10 -10 -10 -5 0 -10 5 -10 10 0 6 5 10 10 10 6 0 10 -4 10 -10z m-2272
-60 c4 0 13 5 20 12 8 8 15 8 26 -1 8 -7 19 -10 24 -7 12 7 72 -49 72 -67 0
-30 -81 -37 -119 -11 -24 18 -51 71 -50 101 0 14 2 13 9 -4 5 -13 13 -23 18
-23z m2872 20 c33 -1 34 -2 16 -15 -17 -13 -22 -12 -47 2 -16 10 -29 22 -29
27 0 6 5 5 12 -2 7 -7 28 -12 48 -12z m-88 -22 c15 -7 29 -21 32 -31 2 -10 0
-14 -6 -11 -5 4 -21 0 -35 -7 -22 -12 -27 -11 -39 6 -8 10 -14 25 -14 32 0 7
-7 13 -15 13 -18 0 -20 17 -2 23 12 4 32 -2 79 -25z m-426 1 c3 -5 -5 -10 -18
-11 -42 -2 -47 -3 -54 -11 -8 -7 -34 10 -34 23 0 18 95 17 106 -1z m177 3 c13
-14 14 -21 5 -30 -8 -8 -15 -7 -24 6 -28 36 -11 57 19 24z m-1093 -21 c0 -11
-5 -23 -11 -27 -8 -4 -7 -10 1 -18 8 -8 14 -7 21 7 6 9 16 17 24 17 8 0 19 8
24 18 9 15 12 15 21 2 15 -23 12 -37 -12 -54 -27 -19 -59 -21 -76 -4 -8 8 -15
8 -26 -1 -25 -21 -39 -8 -40 37 l-1 42 38 0 c30 0 37 -4 37 -19z m-173 -68
c-2 -16 -4 -5 -4 22 0 28 2 40 4 28 2 -13 2 -35 0 -50z m1128 57 c3 -5 1 -10
-4 -10 -6 0 -11 5 -11 10 0 6 2 10 4 10 3 0 8 -4 11 -10z m-4558 -22 c-3 -8
-6 -5 -6 6 -1 11 2 17 5 13 3 -3 4 -12 1 -19z m5033 -8 c0 -5 -2 -10 -4 -10
-3 0 -8 5 -11 10 -3 6 -1 10 4 10 6 0 11 -4 11 -10z m-1741 -65 c20 -45 20
-45 70 -45 70 0 69 -3 -24 -86 -22 -20 -29 -34 -26 -56 l3 -28 -136 0 -135 0
-7 35 c-3 19 -10 38 -15 41 -14 8 -11 70 4 82 6 5 21 11 32 13 12 3 28 21 39
47 l19 42 78 0 78 0 20 -45z m2348 23 c-3 -8 -6 -5 -6 6 -1 11 2 17 5 13 3 -3
4 -12 1 -19z m-5620 -98 c9 -25 29 -66 44 -91 23 -40 24 -46 9 -42 -10 3 -30
18 -45 33 -25 26 -28 38 -31 107 -2 43 -1 69 2 58 3 -11 12 -40 21 -65z m3478
10 c-10 -11 -24 -20 -32 -20 -7 0 -13 -4 -13 -8 0 -5 -7 -9 -14 -9 -11 0 -13
5 -5 19 5 10 7 23 4 28 -5 7 63 19 74 13 2 -2 -4 -12 -14 -23z m1289 3 c-4
-22 1 -34 24 -56 36 -35 63 -30 79 13 18 48 28 35 30 -40 l1 -70 -221 0 c-197
1 -220 2 -203 15 11 8 25 15 32 15 31 0 111 56 118 83 5 21 6 21 19 3 10 -13
16 -15 21 -8 4 7 16 12 27 12 10 0 19 6 19 14 0 14 36 46 52 46 4 0 5 -12 2
-27z m856 -27 c0 -46 -4 -59 -29 -85 -46 -50 -52 -36 -15 35 19 36 34 74 34
85 0 10 2 19 5 19 3 0 5 -24 5 -54z m-2126 -47 c-6 -37 -38 -88 -49 -77 -4 3
-2 15 4 26 6 12 11 34 11 51 0 20 6 31 18 33 23 6 22 7 16 -33z m-76 -12 c2
-15 -1 -27 -7 -27 -6 0 -11 -10 -11 -22 -1 -21 -2 -21 -11 -5 -12 21 -29 22
-29 2 0 -21 -23 -19 -37 4 -12 19 3 39 52 68 28 17 39 11 43 -20z m-2692 -108
c4 -8 9 -8 17 0 18 18 202 14 217 -4 15 -18 40 -20 40 -3 0 6 3 8 7 5 3 -4 12
-2 20 4 10 9 13 8 13 -5 0 -9 7 -16 15 -16 8 0 15 7 15 15 0 13 47 15 364 15
l364 0 6 -31 c3 -17 6 -44 6 -60 0 -15 4 -30 9 -34 5 -3 12 -31 16 -63 3 -31
17 -79 30 -107 13 -27 27 -61 30 -75 4 -14 17 -38 29 -55 11 -16 26 -38 31
-49 6 -11 33 -31 60 -44 105 -51 95 -49 121 -19 12 15 28 27 34 27 6 0 10 12
8 28 -3 23 -8 28 -37 30 -30 3 -33 1 -28 -17 7 -28 -16 -28 -42 0 -14 15 -18
30 -15 48 4 18 0 32 -10 40 -18 15 -21 57 -5 67 6 3 9 14 6 24 -3 12 2 20 14
23 10 3 22 13 25 24 3 10 14 36 25 59 10 23 19 48 19 57 0 9 4 19 10 22 6 3
10 24 10 45 0 29 5 42 19 50 13 6 163 10 420 10 l401 0 0 -27 c0 -14 7 -34 15
-43 9 -10 16 -35 17 -56 1 -56 29 -84 77 -77 20 3 40 10 45 14 6 5 18 9 27 9
10 0 29 15 43 33 14 17 32 40 41 50 8 9 15 26 15 38 0 12 8 23 19 26 11 3 22
11 25 19 3 8 20 14 41 14 27 0 42 -7 60 -27 l23 -28 29 28 29 27 432 0 432 0
0 -22 c-1 -55 -19 -112 -40 -128 -20 -15 -21 -19 -9 -38 13 -21 48 -29 63 -15
4 4 22 6 40 5 20 -2 37 3 45 12 8 9 22 16 32 16 10 0 21 5 24 10 10 16 55 12
55 -4 0 -8 -5 -18 -11 -21 -7 -5 -6 -12 3 -23 34 -44 40 -63 24 -81 -22 -24
-21 -71 1 -71 24 0 83 48 93 76 6 16 17 24 33 24 14 0 39 16 62 40 21 22 44
40 50 40 19 0 100 93 121 137 l19 42 248 1 c136 0 247 -4 247 -8 0 -5 -32 -43
-70 -85 -248 -269 -680 -497 -1205 -637 -112 -30 -117 -31 -131 -13 -7 10 -14
26 -14 36 0 10 -8 17 -18 17 -10 0 -23 5 -29 11 -8 8 -89 12 -251 13 -194 1
-242 -2 -256 -13 -27 -22 -170 -19 -196 4 -15 13 -28 16 -57 10 -21 -4 -43
-11 -50 -17 -6 -5 -46 -12 -88 -15 -41 -3 -78 -10 -81 -14 -3 -5 -70 -9 -148
-9 -112 0 -146 -3 -155 -14 -7 -8 -30 -17 -52 -21 -21 -4 -40 -11 -40 -16 -1
-5 -2 -15 -3 -21 -1 -16 -72 -23 -89 -10 -7 5 -32 12 -56 16 -29 4 -50 15 -63
31 -11 14 -25 25 -32 25 -23 0 -61 50 -58 76 2 13 -1 24 -7 24 -6 0 -8 7 -5
15 8 20 -20 20 -55 -1 -24 -14 -28 -22 -28 -68 0 -28 3 -55 8 -61 5 -6 -12 -9
-47 -7 -48 3 -57 7 -64 28 -13 33 -38 31 -42 -3 -3 -27 -5 -28 -68 -31 -36 -2
-69 -7 -74 -13 -6 -5 -18 -9 -28 -9 -10 0 -18 -7 -18 -14 0 -21 -77 -24 -165
-8 -158 28 -365 84 -365 98 0 16 -16 19 -25 5 -5 -10 -228 62 -367 118 -222
88 -488 244 -638 373 -70 60 -190 187 -190 202 0 11 578 7 586 -5z m2516 -24
c-2 -14 -10 -30 -18 -36 -8 -6 -14 -17 -14 -23 0 -25 -47 -56 -93 -62 -46 -7
-47 -6 -47 19 0 14 -4 29 -10 32 -5 3 -10 14 -10 24 0 10 -6 24 -14 30 -8 7
-12 19 -9 29 3 15 17 17 112 14 l108 -3 -5 -24z m1662 -5 c-8 -16 -53 -63 -99
-105 -68 -62 -90 -76 -117 -77 -18 0 -39 -5 -46 -11 -11 -8 -12 -5 -6 19 3 16
11 33 15 38 26 29 -2 61 -29 34 -9 -9 -12 -8 -12 5 0 28 29 32 53 8 18 -18 20
-24 9 -41 -17 -28 -16 -30 20 -30 22 0 41 9 62 30 17 16 52 48 77 70 26 22 49
49 52 60 5 19 -1 20 -224 20 -219 0 -229 -1 -229 -19 0 -11 -4 -21 -9 -23 -5
-1 -12 -18 -16 -35 -6 -30 -5 -33 18 -33 14 0 27 4 29 10 4 13 158 26 158 13
0 -6 -35 -13 -77 -17 -42 -3 -79 -10 -82 -15 -3 -4 -26 -11 -51 -14 -25 -3
-39 -4 -32 -1 6 3 12 16 12 29 0 13 4 26 10 30 5 3 7 12 3 20 -3 8 0 15 6 15
6 0 11 11 11 25 l0 25 248 2 c136 2 250 2 254 0 3 -1 0 -15 -8 -32z m-2797 3
c7 -15 9 -31 4 -37 -4 -6 -11 -24 -15 -41 -4 -16 -18 -44 -32 -62 -13 -18 -21
-38 -18 -47 5 -12 -1 -16 -25 -16 -21 0 -31 -5 -31 -15 0 -8 -4 -15 -10 -15
-5 0 -10 -9 -10 -19 0 -11 5 -23 10 -26 6 -3 10 -26 10 -51 0 -32 4 -44 15
-44 8 0 15 -9 15 -20 0 -30 -16 -24 -38 14 -29 49 -36 77 -22 86 9 5 9 9 1 14
-6 4 -11 2 -11 -3 0 -6 -4 -11 -10 -11 -5 0 -10 11 -10 25 0 14 -6 25 -13 25
-19 0 -44 65 -52 133 -3 31 -10 57 -14 57 -4 0 -7 18 -6 40 l0 40 125 0 125 0
12 -27z m1558 -663 c4 -6 63 -10 146 -10 76 0 139 -4 139 -9 0 -5 10 -12 23
-16 21 -7 21 -8 -8 -15 -16 -4 -47 -8 -67 -9 -20 0 -39 -5 -42 -10 -3 -4 -33
-11 -65 -15 -33 -4 -63 -11 -66 -15 -2 -5 -21 -12 -40 -15 -19 -4 -35 -11 -35
-15 0 -4 -12 -8 -27 -8 -51 0 -138 -16 -152 -27 -10 -8 -193 -11 -630 -11
-620 0 -721 2 -721 15 0 4 -24 10 -52 13 -67 7 -85 11 -95 21 -18 18 27 26
115 20 81 -6 92 -4 92 10 0 9 7 16 15 16 8 0 15 -3 15 -8 0 -15 -41 -42 -65
-42 -53 0 -22 -17 43 -23 71 -7 340 -7 285 0 -18 2 -33 8 -33 14 0 5 -8 9 -17
9 -9 0 -27 10 -41 23 -22 21 -24 21 -36 5 -10 -14 -28 -18 -75 -18 -34 0 -61
4 -61 10 0 6 28 10 65 10 58 0 65 2 65 20 0 27 12 25 40 -5 13 -14 31 -25 41
-25 9 0 19 -5 21 -10 2 -6 45 -14 96 -17 l93 -6 32 30 c18 17 45 34 62 38 16
3 32 10 35 15 3 5 90 10 194 12 140 2 190 6 194 16 2 6 19 12 38 12 20 0 45 5
57 11 16 9 22 9 25 0 2 -6 19 -11 38 -11 25 0 34 -4 34 -16 0 -14 8 -16 46
-10 26 3 53 11 60 17 7 6 49 13 94 16 44 3 80 10 80 14 0 12 37 11 45 -1z
m-1340 -40 c3 -5 1 -10 -4 -10 -6 0 -11 5 -11 10 0 6 2 10 4 10 3 0 8 -4 11
-10z"/>
<path d="M2787 4074 c-14 -14 -7 -35 11 -32 9 2 17 10 17 17 0 16 -18 25 -28
15z"/>
<path d="M2467 3594 c-13 -14 -7 -36 8 -30 8 3 15 1 15 -4 0 -6 6 -10 14 -10
8 0 16 -7 20 -15 3 -8 12 -15 21 -15 8 0 15 7 15 15 0 21 -39 58 -55 52 -7 -3
-17 -1 -22 4 -5 5 -12 6 -16 3z"/>
<path d="M2622 3468 c2 -13 10 -23 18 -23 8 0 16 10 18 23 3 17 -2 22 -18 22
-16 0 -21 -5 -18 -22z"/>
<path d="M1987 3474 c-14 -14 -7 -35 11 -32 9 2 17 10 17 17 0 16 -18 25 -28
15z"/>
<path d="M1235 3410 c-4 -6 -3 -16 3 -22 6 -6 12 -6 17 2 4 6 3 16 -3 22 -6 6
-12 6 -17 -2z"/>
<path d="M407 3394 c-14 -14 -7 -25 13 -22 12 2 21 8 21 13 0 12 -24 18 -34 9z"/>
<path d="M434 3348 c-9 -14 4 -25 28 -23 13 1 23 8 23 15 0 15 -43 22 -51 8z"/>
<path d="M1230 3325 c0 -8 7 -15 15 -15 8 0 15 7 15 15 0 8 -7 15 -15 15 -8 0
-15 -7 -15 -15z"/>
<path d="M4745 3440 c-7 -12 2 -30 16 -30 12 0 12 27 0 35 -5 3 -12 1 -16 -5z"/>
<path d="M4797 3383 c-12 -11 -7 -33 7 -33 8 0 19 -14 25 -31 14 -39 35 -28
27 14 -9 47 -38 71 -59 50z"/>
<path d="M4676 3352 c-7 -11 15 -62 28 -62 9 0 -1 51 -14 63 -4 5 -10 4 -14
-1z"/>
<path d="M5014 3317 c-8 -21 2 -35 16 -21 5 5 6 15 0 24 -8 12 -10 12 -16 -3z"/>
<path d="M2113 3841 c-20 -23 -41 -41 -45 -41 -4 0 -21 -13 -38 -30 -17 -16
-26 -30 -21 -30 5 0 13 5 16 10 10 16 86 50 113 50 20 0 52 20 52 33 0 2 -9
14 -19 26 l-20 23 -38 -41z"/>
<path d="M2792 3600 c-10 -17 -10 -21 3 -27 21 -8 37 9 29 30 -8 22 -16 21
-32 -3z"/>
<path d="M2876 3485 c-3 -9 -18 -15 -39 -15 -39 0 -67 -25 -67 -61 0 -16 -11
-31 -34 -46 -35 -23 -71 -85 -62 -109 4 -12 59 -14 341 -14 184 0 335 2 335 4
0 9 -55 112 -68 129 -9 9 -23 17 -34 17 -10 0 -18 5 -18 10 0 16 -62 12 -81
-5 -17 -16 -69 -12 -69 6 0 4 -16 11 -35 15 -19 3 -35 10 -35 15 0 5 -5 9 -11
9 -16 0 -39 26 -39 44 0 22 -75 22 -84 1z"/>
<path d="M407 3184 c-8 -8 1 -24 14 -24 5 0 9 7 9 15 0 15 -12 20 -23 9z"/>
<path d="M1250 3055 c0 -9 5 -15 11 -13 6 2 11 8 11 13 0 5 -5 11 -11 13 -6 2
-11 -4 -11 -13z"/>
<path d="M450 2965 c0 -8 5 -15 12 -15 6 0 19 -7 29 -16 10 -9 19 -11 23 -5 3
5 -7 19 -23 30 -35 25 -41 26 -41 6z"/>
<path d="M522 2908 c-18 -18 -14 -28 8 -28 11 0 20 6 20 14 0 21 -15 27 -28
14z"/>
<path d="M230 2870 c0 -13 5 -20 13 -17 6 2 12 10 12 17 0 7 -6 15 -12 18 -8
2 -13 -5 -13 -18z"/>
<path d="M480 2860 c0 -5 5 -10 10 -10 6 0 10 5 10 10 0 6 -4 10 -10 10 -5 0
-10 -4 -10 -10z"/>
<path d="M300 2820 c0 -5 -7 -10 -15 -10 -8 0 -16 -7 -16 -15 -1 -8 -2 -20 -3
-27 -1 -7 13 -12 34 -12 29 0 36 4 38 23 4 22 -13 51 -29 51 -5 0 -9 -4 -9
-10z"/>
<path d="M550 2770 c0 -21 4 -30 12 -28 7 3 12 15 12 28 0 13 -5 25 -12 28 -8
2 -12 -7 -12 -28z"/>
<path d="M774 2704 c3 -9 6 -19 6 -24 0 -4 8 -10 18 -14 9 -3 23 -9 30 -12 18
-8 15 22 -5 46 -21 24 -58 28 -49 4z"/>
<path d="M300 2700 c0 -13 48 -36 56 -27 4 4 1 13 -6 22 -14 17 -50 20 -50 5z"/>
<path d="M520 2694 c0 -17 22 -14 28 4 2 7 -3 12 -12 12 -9 0 -16 -7 -16 -16z"/>
<path d="M480 2670 c0 -19 20 -27 33 -13 8 7 -11 33 -24 33 -5 0 -9 -9 -9 -20z"/>
<path d="M640 2675 c0 -8 -4 -15 -10 -15 -5 0 -10 -4 -10 -10 0 -5 7 -10 15
-10 8 0 15 4 15 9 0 5 3 16 6 25 3 9 1 16 -5 16 -6 0 -11 -7 -11 -15z"/>
<path d="M425 2660 c-9 -15 4 -30 20 -23 8 3 15 9 15 13 0 12 -29 20 -35 10z"/>
<path d="M350 2650 c0 -5 5 -10 10 -10 6 0 10 5 10 10 0 6 -4 10 -10 10 -5 0
-10 -4 -10 -10z"/>
<path d="M265 2603 c-3 -15 -12 -31 -18 -35 -9 -6 -9 -12 1 -25 7 -10 15 -26
18 -35 4 -10 13 -18 20 -18 8 0 14 -7 14 -15 0 -8 7 -15 15 -15 24 0 18 38
-12 77 -22 29 -25 38 -15 54 16 25 15 39 -2 39 -8 0 -17 -12 -21 -27z"/>
<path d="M330 2606 c0 -19 60 -40 74 -26 7 7 4 15 -10 25 -25 19 -64 19 -64 1z"/>
<path d="M300 2580 c0 -10 32 -30 49 -30 6 0 11 5 11 10 0 6 -7 10 -15 10 -8
0 -15 5 -15 10 0 6 -7 10 -15 10 -8 0 -15 -4 -15 -10z"/>
<path d="M505 2530 c-7 -12 2 -30 16 -30 5 0 9 9 9 20 0 21 -15 27 -25 10z"/>
<path d="M420 2500 c0 -5 5 -10 10 -10 6 0 10 5 10 10 0 6 -4 10 -10 10 -5 0
-10 -4 -10 -10z"/>
<path d="M2766 2573 c-11 -11 -6 -23 9 -23 8 0 15 4 15 9 0 13 -16 22 -24 14z"/>
<path d="M2430 2480 c0 -24 25 -27 34 -4 9 23 8 24 -14 24 -13 0 -20 -7 -20
-20z"/>
<path d="M4405 2669 c-10 -15 1 -23 20 -15 9 3 13 10 10 16 -8 13 -22 13 -30
-1z"/>
<path d="M3640 2560 c0 -5 5 -10 10 -10 6 0 10 5 10 10 0 6 -4 10 -10 10 -5 0
-10 -4 -10 -10z"/>
<path d="M3710 2549 c0 -24 23 -21 28 4 2 10 -3 17 -12 17 -10 0 -16 -9 -16
-21z"/>
<path d="M4570 2530 c0 -5 7 -10 15 -10 8 0 15 5 15 10 0 6 -7 10 -15 10 -8 0
-15 -4 -15 -10z"/>
<path d="M3752 2493 c5 -25 28 -28 28 -4 0 12 -6 21 -16 21 -9 0 -14 -7 -12
-17z"/>
<path d="M3658 2486 c-21 -15 -24 -36 -5 -36 17 0 57 29 57 41 0 13 -32 11
-52 -5z"/>
<path d="M4474 3175 c-4 -9 -4 -18 -2 -21 9 -8 39 8 35 19 -6 18 -27 20 -33 2z"/>
<path d="M5310 3130 c0 -5 7 -10 15 -10 8 0 15 5 15 10 0 6 -7 10 -15 10 -8 0
-15 -4 -15 -10z"/>
<path d="M5228 3088 c-6 -17 3 -58 12 -58 4 0 7 16 8 35 1 33 -12 48 -20 23z"/>
<path d="M5270 3084 c0 -25 30 -69 54 -80 11 -5 21 -16 21 -24 1 -38 35 -55
35 -17 1 21 1 21 15 3 7 -10 18 -15 24 -11 14 8 14 35 1 35 -5 0 -19 20 -30
45 -18 39 -25 45 -50 45 -17 0 -30 5 -30 10 0 6 -9 10 -20 10 -12 0 -20 -7
-20 -16z"/>
<path d="M4902 3058 c-17 -17 -15 -28 7 -28 10 0 18 -6 17 -12 0 -7 4 -14 9
-16 13 -3 15 40 3 56 -13 15 -21 15 -36 0z"/>
<path d="M5053 3019 c-4 -14 -9 -16 -17 -10 -17 14 -56 2 -56 -16 0 -12 9 -14
39 -10 23 3 44 0 50 -6 9 -9 14 -8 20 2 7 11 12 10 27 -8 10 -11 22 -21 26
-21 14 0 9 37 -7 50 -8 7 -15 18 -15 25 0 7 -14 12 -31 13 -23 0 -33 -4 -36
-19z"/>
<path d="M4832 3003 c5 -25 28 -28 28 -4 0 12 -6 21 -16 21 -9 0 -14 -7 -12
-17z"/>
<path d="M5189 3008 c0 -2 -2 -14 -3 -27 -2 -13 -10 -28 -19 -33 -21 -11 -22
-28 -2 -28 8 0 15 7 15 15 0 8 7 15 16 15 10 0 14 5 10 15 -4 13 -2 13 14 5
26 -14 39 9 15 27 -16 11 -43 18 -46 11z"/>
<path d="M4809 2980 c-14 -59 3 -88 31 -54 11 13 10 19 -8 37 -12 12 -22 19
-23 17z"/>
<path d="M5270 2965 c0 -9 5 -15 11 -13 6 2 11 8 11 13 0 5 -5 11 -11 13 -6 2
-11 -4 -11 -13z"/>
<path d="M5417 2924 c-13 -13 -7 -37 21 -80 15 -25 35 -44 45 -44 23 0 22 32
-3 47 -11 7 -23 27 -28 45 -8 32 -22 44 -35 32z"/>
<path d="M5157 2884 c-8 -8 1 -24 14 -24 5 0 9 7 9 15 0 15 -12 20 -23 9z"/>
<path d="M5330 2845 c0 -8 5 -15 10 -15 6 0 10 7 10 15 0 8 -4 15 -10 15 -5 0
-10 -7 -10 -15z"/>
<path d="M5375 2849 c-4 -6 -5 -13 -2 -16 7 -7 27 6 27 18 0 12 -17 12 -25 -2z"/>
<path d="M5460 2751 c0 -10 7 -24 15 -31 8 -7 15 -25 15 -41 0 -32 11 -37 30
-14 10 12 10 19 2 27 -7 7 -12 19 -12 28 0 16 -29 50 -43 50 -4 0 -7 -8 -7
-19z"/>
<path d="M5445 2620 c-3 -5 1 -10 9 -10 9 0 16 5 16 10 0 6 -4 10 -9 10 -6 0
-13 -4 -16 -10z"/>
<path d="M5430 2561 c-19 -5 -26 -14 -28 -39 -3 -28 0 -32 20 -32 15 0 33 11
47 30 32 44 20 57 -39 41z"/>
<path d="M5010 2545 c0 -8 5 -15 10 -15 6 0 10 7 10 15 0 8 -4 15 -10 15 -5 0
-10 -7 -10 -15z"/>
<path d="M5110 2485 c0 -9 5 -15 11 -13 6 2 11 8 11 13 0 5 -5 11 -11 13 -6 2
-11 -4 -11 -13z"/>
<path d="M3687 2733 c-12 -11 -8 -23 8 -23 8 0 15 7 15 15 0 16 -12 20 -23 8z"/>
<path d="M1337 2374 c-14 -14 -7 -35 11 -32 9 2 17 10 17 17 0 16 -18 25 -28
15z"/>
<path d="M1740 2365 c0 -8 7 -15 15 -15 8 0 15 7 15 15 0 8 -7 15 -15 15 -8 0
-15 -7 -15 -15z"/>
<path d="M857 2363 c-3 -5 -2 -15 3 -22 10 -17 43 -6 38 12 -6 15 -34 22 -41
10z"/>
<path d="M424 2318 c3 -13 6 -26 6 -30 0 -5 7 -8 15 -8 18 0 20 31 3 48 -19
19 -31 14 -24 -10z"/>
<path d="M5142 2323 c2 -10 10 -18 18 -18 22 0 18 29 -3 33 -14 3 -18 -1 -15
-15z"/>
<path d="M4990 2275 c0 -8 7 -15 15 -15 8 0 15 7 15 15 0 8 -7 15 -15 15 -8 0
-15 -7 -15 -15z"/>
<path d="M1790 2245 c0 -8 9 -15 20 -15 11 0 20 7 20 15 0 8 -9 15 -20 15 -11
0 -20 -7 -20 -15z"/>
<path d="M5122 2238 c-6 -6 -12 -18 -12 -25 0 -16 -60 -72 -77 -73 -7 0 -39
-13 -70 -29 -32 -15 -78 -38 -103 -49 -25 -12 -55 -33 -68 -47 -26 -27 -22
-50 6 -36 18 10 51 21 55 19 1 0 46 22 100 50 53 28 97 49 97 46 0 -2 27 9 61
26 l60 31 -3 47 c-3 49 -21 65 -46 40z"/>
<path d="M2692 2178 c2 -13 8 -23 13 -23 6 0 11 10 13 23 2 15 -2 22 -13 22
-11 0 -15 -7 -13 -22z"/>
<path d="M3846 2183 c-12 -12 -6 -43 9 -43 8 0 15 9 15 19 0 21 -13 34 -24 24z"/>
<path d="M2720 2125 c0 -8 7 -15 15 -15 8 0 15 7 15 15 0 8 -7 15 -15 15 -8 0
-15 -7 -15 -15z"/>
<path d="M712 2063 c5 -26 38 -29 38 -4 0 15 -6 21 -21 21 -14 0 -19 -5 -17
-17z"/>
<path d="M3450 2031 c0 -24 18 -37 32 -23 8 8 7 16 -2 27 -17 21 -30 19 -30
-4z"/>
<path d="M3292 2023 c4 -21 33 -25 33 -3 0 8 -8 16 -18 18 -14 3 -18 -1 -15
-15z"/>
<path d="M3636 1995 c-23 -17 -13 -35 20 -35 20 0 25 4 22 22 -4 27 -18 31
-42 13z"/>
<path d="M4877 1984 c-8 -8 1 -24 14 -24 5 0 9 7 9 15 0 15 -12 20 -23 9z"/>
<path d="M4698 1955 c-9 -19 -9 -28 0 -37 15 -15 28 -2 37 35 9 36 -20 38 -37
2z"/>
<path d="M3640 1915 c0 -8 9 -15 20 -15 11 0 20 7 20 15 0 8 -9 15 -20 15 -11
0 -20 -7 -20 -15z"/>
<path d="M2445 1910 c-9 -14 2 -25 33 -35 21 -6 23 -4 20 17 -3 25 -41 38 -53
18z"/>
<path d="M2885 1910 c-4 -6 -3 -16 3 -22 6 -6 12 -6 17 2 4 6 3 16 -3 22 -6 6
-12 6 -17 -2z"/>
<path d="M4523 1904 c-8 -20 13 -42 27 -28 12 12 3 44 -11 44 -5 0 -12 -7 -16
-16z"/>
<path d="M2572 1878 c-17 -17 -15 -38 3 -38 8 0 15 -7 15 -16 0 -19 24 -13 27
7 2 8 -5 24 -15 37 -14 18 -20 20 -30 10z"/>
<path d="M2414 1815 c-4 -9 -2 -21 4 -27 15 -15 44 -1 40 19 -4 23 -36 29 -44
8z"/>
<path d="M4192 1728 c-16 -16 -15 -38 1 -38 17 0 37 20 37 37 0 16 -22 17 -38
1z"/>
<path d="M3100 2381 c0 -5 7 -14 15 -21 8 -7 15 -18 15 -24 0 -7 6 -24 13 -39
10 -23 16 -26 42 -21 33 6 95 69 95 97 0 15 -11 17 -90 17 -49 0 -90 -4 -90
-9z"/>
<path d="M1920 2356 c0 -19 5 -36 11 -38 6 -2 13 -32 16 -66 3 -34 10 -62 14
-62 5 0 9 -6 9 -12 1 -24 27 -49 44 -42 9 3 16 10 16 16 0 15 27 38 44 38 9 0
16 6 16 14 0 7 7 19 15 26 8 7 20 31 27 54 6 22 15 46 20 53 6 7 4 20 -4 32
-12 19 -22 21 -120 21 l-108 0 0 -34z"/>
<path d="M3680 1691 c0 -4 -36 -11 -80 -14 -45 -3 -86 -10 -93 -16 -7 -5 -32
-13 -55 -17 -31 -5 -45 -2 -57 10 -9 9 -27 16 -40 16 -13 0 -27 5 -30 10 -4 7
-12 7 -25 0 -10 -5 -33 -10 -50 -10 -17 0 -38 -6 -45 -14 -11 -10 -57 -14
-197 -15 -103 -1 -184 -6 -186 -11 -2 -5 -19 -12 -37 -16 -19 -3 -45 -19 -60
-36 l-27 -30 412 4 c294 2 413 6 418 14 4 7 46 15 95 19 48 4 87 11 87 15 0 9
39 23 58 21 6 -1 12 2 12 8 0 5 28 12 63 16 34 4 67 11 72 15 6 5 28 10 50 13
22 2 -22 4 -97 5 -78 1 -139 6 -143 12 -8 12 -45 13 -45 1z"/>
<path d="M2103 1583 c9 -2 23 -2 30 0 6 3 -1 5 -18 5 -16 0 -22 -2 -12 -5z"/>
</g>
</svg>
